<svg width="24" height="24" viewBox="0 0 24 24" fill="none" xmlns="http://www.w3.org/2000/svg"><path d="M12.0442 5.22429C11.8534 2.48078 14.1641 0.221251 16.8191 0C17.1897 3.1708 13.8322 5.53128 12.0456 5.22291" fill="currentColor"></path><path d="M14.3427 22.3152C15.5641 22.8393 16.8344 23.0135 17.9979 21.9078L18.0855 21.8285C19.485 20.5566 20.3394 18.862 21 17.1562C17.6058 15.8173 16.7277 11.0316 20.4304 8.85422C19.5407 7.59655 18.1869 6.89828 16.3959 6.7581C14.9007 6.6533 13.5597 7.59469 12.1583 7.87373C11.221 7.8043 10.1051 6.88649 8.5031 6.80527C1.92808 7.13016 1.07438 16.0491 6.86513 21.9091C7.88725 22.8275 8.78723 23.0371 10.4972 22.3152C11.8613 21.7558 13.0493 21.7794 14.3427 22.3152Z" stroke="currentColor" stroke-width="2.25" stroke-linejoin="round"></path></svg>